# File created by Blade
# Date/Time:  Wed Apr 08 17:19:54 2015
# Frame Rate: 120.000 fps
#------------------------------------------------------
:FULLY-SPECIFIED
:DEGREES
797
root 4.889457 35.924688 0.923280 -3.051617 -51.014952 -6.392807
Spine 8.916138 1.254644 2.234931
Head 26.645992 20.389186 13.115701
LeftShoulder -7.260621 17.261015 15.752436
LeftArm 15.718500 21.450192 -75.607163
LeftForeArm 21.583962 0.000000 15.393171
LeftHand -10.566791 -0.000000 -17.493042
LeftHandThumb1 -26.253704 0.000000 33.147579
RightShoulder -33.898031 -49.805769 27.398804
RightArm 55.868238 -17.935768 58.204007
RightForeArm 29.425897 -0.000000 3.814200
RightHand -5.881757 0.000000 11.246190
RightHandThumb1 -24.326973 -0.000000 -32.862282
LeftUpLeg 12.975147 11.867758 -0.803405
LeftLeg 8.693290 -0.000000 -0.000000
LeftFoot -17.388733 4.076542 -1.197993
LeftToeBase 10.265228 -0.000000 -0.000000
RightUpLeg -23.678065 -2.999490 -14.242765
RightLeg 151.694107 -0.000000 -0.000000
RightFoot 38.301831 7.188774 11.675072
RightToeBase 13.153441 -0.000000 -0.000000
798
root 4.885729 35.924777 0.921599 -2.867055 -51.367799 -6.568640
Spine 8.886916 1.278592 2.287907
Head 26.586423 20.406044 13.047502
LeftShoulder -7.261199 17.266312 15.694483
LeftArm 15.761819 21.477672 -75.623773
LeftForeArm 21.438600 -0.000000 15.350683
LeftHand -10.559143 -0.000000 -17.384469
LeftHandThumb1 -26.253704 0.000000 33.147579
RightShoulder -33.864444 -49.787774 27.357639
RightArm 55.737846 -17.786042 58.462236
RightForeArm 29.270640 -0.000000 3.819125
RightHand -5.880377 -0.000000 11.334886
RightHandThumb1 -24.326973 -0.000000 -32.862282
LeftUpLeg 12.947277 12.076717 -0.716987
LeftLeg 8.716582 -0.000000 -0.000000
LeftFoot -17.437115 4.216676 -1.210883
LeftToeBase 10.247633 -0.000000 -0.000000
RightUpLeg -23.761638 -3.159681 -14.332681
RightLeg 151.682485 -0.000000 -0.000000
RightFoot 38.299417 7.166406 11.611721
RightToeBase 13.266773 -0.000000 -0.000000
799
root 4.880595 35.924486 0.926244 -2.752207 -51.727767 -6.701564
Spine 8.891466 1.278397 2.296505
Head 26.533113 20.442412 13.029748
LeftShoulder -7.280174 17.280901 15.674864
LeftArm 15.759079 21.383992 -75.738007
LeftForeArm 21.468786 -0.000000 15.338095
LeftHand -10.536518 -0.000000 -17.393308
LeftHandThumb1 -26.253704 0.000000 33.147579
RightShoulder -33.927296 -49.845057 27.414771
RightArm 55.829747 -17.828060 58.313879
RightForeArm 29.501767 -0.000000 3.851786
RightHand -5.889308 0.000000 11.219856
RightHandThumb1 -24.326973 -0.000000 -32.862282
LeftUpLeg 12.994166 12.341807 -0.641392
LeftLeg 8.686011 -0.000000 -0.000000
LeftFoot -17.461077 4.335785 -1.175745
LeftToeBase 10.223241 -0.000000 -0.000000
RightUpLeg -23.781468 -3.260783 -14.493878
RightLeg 151.653145 -0.000000 -0.000000
RightFoot 38.302455 7.168835 11.645488
RightToeBase 13.360030 -0.000000 -0.000000
800
root 4.874139 35.923476 0.930778 -2.636101 -52.098832 -6.843643
Spine 8.910039 1.297528 2.316066
Head 26.465655 20.466346 13.002057
LeftShoulder -7.298424 17.311662 15.648180
LeftArm 15.793955 21.416674 -75.790446
LeftForeArm 21.381701 -0.000000 15.334404
LeftHand -10.559577 -0.000000 -17.399504
LeftHandThumb1 -26.253704 0.000000 33.147579
RightShoulder -33.962181 -49.838723 27.427459
RightArm 55.857927 -17.843911 58.266173
RightForeArm 29.596412 -0.000000 3.842870
RightHand -5.888330 0.000000 11.126996
RightHandThumb1 -24.326973 -0.000000 -32.862282
LeftUpLeg 13.067071 12.670197 -0.538534
LeftLeg 8.636613 -0.000000 -0.000000
LeftFoot -17.483380 4.367555 -1.176011
LeftToeBase 10.179111 -0.000000 -0.000000
RightUpLeg -23.822260 -3.389114 -14.623565
RightLeg 151.630472 -0.000000 -0.000000
RightFoot 38.287848 7.146697 11.615368
RightToeBase 13.324658 -0.000000 -0.000000
801
root 4.871500 35.922901 0.935516 -2.540230 -52.455482 -6.944741
Spine 8.924492 1.316038 2.311743
Head 26.389098 20.440979 12.946290
LeftShoulder -7.295058 17.284944 15.626795
LeftArm 15.792790 21.416842 -75.869905
LeftForeArm 21.297172 -0.000000 15.294108
LeftHand -10.544107 -0.000000 -17.391027
LeftHandThumb1 -26.253704 0.000000 33.147579
RightShoulder -33.953116 -49.824053 27.410989
RightArm 55.794361 -17.742255 58.426970
RightForeArm 29.522326 -0.000000 3.848695
RightHand -5.850547 -0.000000 11.204587
RightHandThumb1 -24.326973 -0.000000 -32.862282
LeftUpLeg 13.129968 12.990782 -0.466349
LeftLeg 8.572377 -0.000000 -0.000000
LeftFoot -17.474857 4.390427 -1.183605
LeftToeBase 10.087989 -0.000000 -0.000000
RightUpLeg -23.879568 -3.538625 -14.804389
RightLeg 151.619375 -0.000000 -0.000000
RightFoot 38.249994 7.089729 11.585731
RightToeBase 13.182193 -0.000000 -0.000000
802
root 4.867346 35.921861 0.943432 -2.449886 -52.836640 -7.053903
Spine 8.945588 1.345952 2.311483
Head 26.315201 20.397282 12.890687
LeftShoulder -7.288630 17.296900 15.622672
LeftArm 15.803663 21.394634 -75.975253
LeftForeArm 21.328308 -0.000000 15.274695
LeftHand -10.487505 -0.000000 -17.480105
LeftHandThumb1 -26.253704 0.000000 33.147579
RightShoulder -33.974314 -49.833814 27.421407
RightArm 55.831674 -17.779238 58.325679
RightForeArm 29.702248 -0.000000 3.871276
RightHand -5.868051 0.000000 10.999316
RightHandThumb1 -24.326973 -0.000000 -32.862282
LeftUpLeg 13.226822 13.376253 -0.374036
LeftLeg 8.487193 -0.000000 -0.000000
LeftFoot -17.472578 4.377983 -1.177468
LeftToeBase 10.063668 -0.000000 -0.000000
RightUpLeg -23.913420 -3.613469 -14.992429
RightLeg 151.599233 -0.000000 -0.000000
RightFoot 38.219818 7.101988 11.598727
RightToeBase 13.223371 -0.000000 -0.000000
803
root 4.865075 35.921328 0.946842 -2.326719 -53.196826 -7.179678
Spine 8.954987 1.343372 2.325730
Head 26.245478 20.328348 12.778663
LeftShoulder -7.296703 17.285249 15.591794
LeftArm 15.819909 21.503992 -76.005553
LeftForeArm 21.281190 -0.000000 15.271023
LeftHand -10.514246 -0.000000 -17.447980
LeftHandThumb1 -26.253704 0.000000 33.147579
RightShoulder -33.888734 -49.820131 27.338811
RightArm 55.668938 -17.522289 58.750859
RightForeArm 29.288684 -0.000000 3.840498
RightHand -5.709525 0.000000 11.021293
RightHandThumb1 -24.326973 -0.000000 -32.862282
LeftUpLeg 13.282853 13.736432 -0.275732
LeftLeg 8.429448 -0.000000 -0.000000
LeftFoot -17.478244 4.353588 -1.178845
LeftToeBase 10.039958 -0.000000 -0.000000
RightUpLeg -23.998398 -3.752612 -15.165116
RightLeg 151.584627 -0.000000 -0.000000
RightFoot 38.230968 7.109919 11.518161
RightToeBase 13.247849 -0.000000 -0.000000
804
root 4.862514 35.920470 0.952285 -2.234649 -53.551459 -7.287475
Spine 8.982902 1.332472 2.313257
Head 26.173791 20.245843 12.723238
LeftShoulder -7.300895 17.295323 15.585624
LeftArm 15.856138 21.592648 -76.052002
LeftForeArm 21.334869 -0.000000 15.280974
LeftHand -10.497953 -0.000000 -17.518733
LeftHandThumb1 -26.253704 0.000000 33.147579
RightShoulder -33.935128 -49.819495 27.395642
RightArm 55.758419 -17.579656 58.551887
RightForeArm 29.524026 -0.000000 3.858355
RightHand -5.740217 0.000000 10.913378
RightHandThumb1 -24.326973 -0.000000 -32.862282
LeftUpLeg 13.356067 14.097461 -0.185414
LeftLeg 8.375764 -0.000000 -0.000000
LeftFoot -17.499321 4.336908 -1.174699
LeftToeBase 10.066583 -0.000000 -0.000000
RightUpLeg -24.058304 -3.884935 -15.341425
RightLeg 151.575648 -0.000000 -0.000000
RightFoot 38.205971 7.109121 11.481668
RightToeBase 13.318097 -0.000000 -0.000000
805
root 4.861509 35.918823 0.954246 -2.116129 -53.896582 -7.395195
Spine 8.993870 1.301978 2.293800
Head 26.088106 20.166458 12.662068
LeftShoulder -7.322736 17.298445 15.577749
LeftArm 15.897640 21.757965 -76.050912
LeftForeArm 21.291328 -0.000000 15.331387
LeftHand -10.444465 -0.000000 -17.690367
LeftHandThumb1 -26.253704 0.000000 33.147579
RightShoulder -33.864552 -49.804116 27.357757
RightArm 55.669415 -17.417340 58.763199
RightForeArm 29.397051 -0.000000 3.852680
RightHand -5.697998 -0.000000 11.016758
RightHandThumb1 -24.326973 -0.000000 -32.862282
LeftUpLeg 13.384382 14.399671 -0.118473
LeftLeg 8.335751 -0.000000 -0.000000
LeftFoot -17.515392 4.365002 -1.222597
LeftToeBase 10.002609 -0.000000 -0.000000
RightUpLeg -24.154698 -4.002769 -15.512233
RightLeg 151.573892 -0.000000 -0.000000
RightFoot 38.255757 7.177803 11.486526
RightToeBase 13.258424 -0.000000 -0.000000
806
root 4.861279 35.918277 0.958047 -1.944799 -54.221179 -7.553282
Spine 8.985746 1.273435 2.323247
Head 26.017468 20.031685 12.566529
LeftShoulder -7.321601 17.295791 15.553911
LeftArm 15.945674 21.878321 -76.065075
LeftForeArm 21.322720 -0.000000 15.336907
LeftHand -10.442148 -0.000000 -17.784662
LeftHandThumb1 -26.253704 0.000000 33.147579
RightShoulder -33.876655 -49.773436 27.372893
RightArm 55.655027 -17.348170 58.789468
RightForeArm 29.347410 0.000000 3.853840
RightHand -5.657589 -0.000000 10.970374
RightHandThumb1 -24.326973 -0.000000 -32.862282
LeftUpLeg 13.390095 14.704091 -0.027079
LeftLeg 8.316913 -0.000000 -0.000000
LeftFoot -17.539020 4.388921 -1.224810
LeftToeBase 9.982879 -0.000000 -0.000000
RightUpLeg -24.231918 -4.060994 -15.694763
RightLeg 151.540682 -0.000000 -0.000000
RightFoot 38.380789 7.283732 11.692280
RightToeBase 13.181795 -0.000000 -0.000000
807
root 4.858933 35.915300 0.965490 -1.872964 -54.519515 -7.634224
Spine 9.013118 1.222161 2.289322
Head 25.932016 19.868169 12.518327
LeftShoulder -7.306178 17.286818 15.572228
LeftArm 15.948281 21.931556 -76.129152
LeftForeArm 21.378250 -0.000000 15.371304
LeftHand -10.381768 0.000000 -17.848820
LeftHandThumb1 -26.253704 0.000000 33.147579
RightShoulder -33.874071 -49.741158 27.381907
RightArm 55.614730 -17.326272 58.782598
RightForeArm 29.434824 0.000000 3.911119
RightHand -5.603850 -0.000000 10.871629
RightHandThumb1 -24.326973 -0.000000 -32.862282
LeftUpLeg 13.437099 14.938410 0.009792
LeftLeg 8.296019 -0.000000 -0.000000
LeftFoot -17.577077 4.446059 -1.246205
LeftToeBase 10.010698 -0.000000 -0.000000
RightUpLeg -24.314560 -4.295317 -15.882333
RightLeg 151.557825 -0.000000 -0.000000
RightFoot 38.349162 7.288562 11.391393
RightToeBase 13.438659 -0.000000 -0.000000
